HIERARCHY
ROOT Hips
{
	OFFSET 0.00000 0.00000 0.00000
	CHANNELS 6 Xposition Yposition Zposition Yrotation Zrotation Xrotation 
	JOINT Lumbar
	{
		OFFSET 0 0 0
		CHANNELS 3 Zrotation Xrotation Yrotation
		JOINT Neck
		{
			OFFSET 0.00 0.2701 0.00
			CHANNELS 3 Zrotation Xrotation Yrotation
			End Site
			{
				OFFSET 0.00 0.1379 0.00
			}
		}
		JOINT RightShoulder
		{
			OFFSET 0.0119 0.2289 0.1181
			CHANNELS 3 Zrotation Xrotation Yrotation
			JOINT RightElbow
			{
				OFFSET 0.00 -0.1475 0.00
				CHANNELS 2 Zrotation Yrotation
				JOINT RightWrist
				{
					OFFSET 0.00 -0.1605 0.00
					CHANNELS 2 Zrotation Xrotation
					End Site
					{
						OFFSET 0.0040 -0.1068 0.0006
					}
				}
			}
		}
		JOINT LeftShoulder
		{
			OFFSET 0.0119 0.2289 -0.1181
			CHANNELS 3 Zrotation Xrotation Yrotation
			JOINT LeftElbow
			{
				OFFSET 0.00 -0.1475 0.00
				CHANNELS 2 Zrotation Yrotation
				JOINT LeftWrist
				{
					OFFSET 0.00 -0.1605 0.00
					CHANNELS 2 Zrotation Xrotation
					End Site
					{
						OFFSET 0.0040 -0.1068 -0.0006
					}
				}
			}
		}
	}
	JOINT RightHip
	{
		OFFSET 0.0316 -0.0424 0.0458
		CHANNELS 3 Zrotation Xrotation Yrotation
		JOINT RightKnee
		{
			OFFSET 0.00 -0.2438 0.00
			CHANNELS 1 Zrotation
			JOINT RightAnkle
			{
				OFFSET 0.00 -0.2449 0.00
				CHANNELS 3 Zrotation Xrotation Yrotation
				End Site
				{
					OFFSET 0.1237 -0.0542 0.0051
				}
			}
		}
	}
	JOINT LeftHip
	{
		OFFSET 0.0316 -0.0424 -0.0458
		CHANNELS 3 Zrotation Xrotation Yrotation
		JOINT LeftKnee
		{
			OFFSET 0.00 -0.2438 0.00
			CHANNELS 1 Zrotation
			JOINT LeftAnkle
			{
				OFFSET 0.00 -0.2449 0.00
				CHANNELS 3 Zrotation Xrotation Yrotation
				End Site
				{
					OFFSET 0.1237 -0.0542 -0.0051
				}
			}
		}
	}
}
MOTION
Frames: 23
Frame Time: 0.02
0 0.57926 0 183.12482 0 -3.91997 -0.1206 2.79537 -6.1077 -23.84042 5.13936 2.98778 -46.19244 -74.5713 -86.92826 19.29692 73.30219 -25.19238 -1.52317 -22.15824 67.57151 76.96554 26.53795 -67.50156 -32.92281 1.17311 -2.90772 1.48507 4.54903 -6.2599 -3.09623 -2.58847 -6.13361 -0.44215 7.91677 -2.64107 -8.48418 5.49402 0.55141 -2.1948
-0.00027 0.57926 0 183.16242 0 -3.92102 -0.09341 2.80106 -6.10698 -23.86653 5.1325 2.98279 -46.20248 -74.56465 -86.92814 19.29515 73.2526 -25.16701 -1.51191 -22.16264 67.57677 76.99354 26.52511 -67.49675 -32.91734 1.1772 -2.93927 1.49086 4.51309 -6.26045 -3.08026 -2.59223 -6.14165 -0.45816 7.91908 -2.66043 -8.48533 5.50969 0.54528 -2.20649
-0.00053 0.57925 0 183.19986 0 -3.92205 -0.0663 2.80667 -6.10622 -23.89252 5.12577 2.97785 -46.21188 -74.55804 -86.92801 19.29338 73.20297 -25.14139 -1.50104 -22.16697 67.58169 77.02135 26.51236 -67.49219 -32.91185 1.1813 -2.97074 1.49663 4.47746 -6.26101 -3.06428 -2.596 -6.14974 -0.47412 7.92137 -2.67986 -8.48656 5.52537 0.5392 -2.21799
-0.0008 0.57924 0 183.23691 0 -3.92307 -0.03927 2.81201 -6.10526 -23.91811 5.11944 2.97312 -46.21974 -74.5512 -86.92789 19.29171 73.15189 -25.11489 -1.49186 -22.17136 67.58561 77.04885 26.49996 -67.48835 -32.90617 1.1855 -3.00217 1.50238 4.44278 -6.26161 -3.04819 -2.59977 -6.15817 -0.49006 7.92364 -2.69979 -8.4881 5.54123 0.53329 -2.22882
-0.00107 0.57923 1e-05 183.27591 0 -3.92421 -0.01181 2.8188 -6.10534 -23.94564 5.11097 2.96736 -46.23686 -74.54521 -86.92778 19.28966 73.10753 -25.0935 -1.47399 -22.17579 67.59519 77.07819 26.48584 -67.48041 -32.90145 1.18917 -3.03376 1.50826 4.40315 -6.26193 -3.03279 -2.60346 -6.16486 -0.50613 7.92607 -2.71712 -8.48796 5.55617 0.5265 -2.24317
-0.00134 0.57922 0 183.3108 0 -3.92506 0.01471 2.82252 -6.10325 -23.96914 5.10706 2.96376 -46.23365 -74.53767 -86.92763 19.28834 73.04966 -25.06099 -1.47434 -22.17989 67.59256 77.10352 26.47527 -67.48133 -32.89471 1.19396 -3.06501 1.51383 4.37396 -6.26289 -3.01589 -2.60735 -6.1752 -0.52191 7.92811 -2.73991 -8.49137 5.57301 0.52157 -2.25008
-0.00162 0.5792 -1e-05 183.33453 0 -3.92531 0.03915 2.8174 -6.09452 -23.98102 5.11579 2.96634 -46.17819 -74.52342 -86.92731 19.28966 72.94581 -24.99848 -1.52837 -22.18503 67.55673 77.11887 26.47559 -67.5062 -32.88188 1.20201 -3.09602 1.51906 4.37463 -6.26543 -2.99474 -2.61183 -6.19626 -0.53702 7.9295 -2.77921 -8.50516 5.59602 0.52205 -2.2356
-0.00191 0.57917 -2e-05 183.35414 0 -3.92523 0.06255 2.80924 -6.08372 -23.98891 5.12914 2.97106 -46.10132 -74.50799 -86.92695 19.29163 72.82985 -24.9245 -1.60023 -22.18949 67.50845 77.13 26.47935 -67.54012 -32.86705 1.21117 -3.12659 1.52388 4.38567 -6.26865 -2.97208 -2.61651 -6.22091 -0.55179 7.93041 -2.82384 -8.52246 5.62083 0.52438 -2.21375
-0.00219 0.57915 -4e-05 183.37552 0 -3.92515 0.08615 2.80272 -6.07429 -23.99897 5.14035 2.97469 -46.03183 -74.49472 -86.92663 19.29284 72.7249 -24.85524 -1.66183 -22.19294 67.46549 77.14239 26.48081 -67.57031 -32.8535 1.21974 -3.15696 1.52855 4.3913 -6.27168 -2.95019 -2.62108 -6.2435 -0.56664 7.93125 -2.8651 -8.53778 5.64425 0.5257 -2.1958
-0.00249 0.57912 -6e-05 183.39724 0 -3.92568 0.11098 2.79515 -6.06302 -24.00762 5.1517 2.97885 -45.97276 -74.47481 -86.92622 19.29586 72.59654 -24.7882 -1.73256 -22.20187 67.42394 77.15758 26.48523 -67.599 -32.83854 1.22868 -3.18906 1.53465 4.39987 -6.27419 -2.92796 -2.62572 -6.26785 -0.58191 7.93331 -2.91021 -8.55465 5.67004 0.5277 -2.17552
-0.00276 0.57909 -6e-05 183.41739 0 -3.92486 0.13288 2.78901 -6.05511 -24.01814 5.16388 2.98238 -45.88626 -74.46821 -86.92599 19.29547 72.5143 -24.71363 -1.78849 -22.19934 67.37653 77.16592 26.48447 -67.63284 -32.82583 1.2371 -3.2174 1.53767 4.40481 -6.27799 -2.90607 -2.63028 -6.28944 -0.59609 7.93269 -2.94875 -8.56923 5.69137 0.52877 -2.15834
-0.00296 0.57908 -2e-05 183.43329 0 -3.92055 0.14795 2.78781 -6.0567 -24.03569 5.17708 2.98386 -45.73472 -74.50058 -86.92627 19.28383 72.56028 -24.62265 -1.79934 -22.16434 67.3157 77.15636 26.46705 -67.67992 -32.82165 1.2439 -3.23574 1.53243 4.39676 -6.28462 -2.88567 -2.6344 -6.30206 -0.60841 7.92497 -2.96613 -8.57554 5.69928 0.52644 -2.15175
-0.00313 0.57907 5e-05 183.4479 0 -3.91486 0.15989 2.78811 -6.06178 -24.0551 5.19099 2.98463 -45.55523 -74.54605 -86.92673 19.26904 72.65351 -24.52418 -1.79466 -22.11797 67.24944 77.14002 26.44456 -67.7317 -32.81951 1.25011 -3.25025 1.5241 4.38477 -6.29259 -2.86566 -2.63844 -6.31186 -0.61946 7.91453 -2.97699 -8.57958 5.70272 0.52318 -2.1485
-0.00331 0.57906 0.0001 183.46375 0 -3.9097 0.17262 2.78754 -6.06544 -24.07303 5.20464 2.98554 -45.385 -74.58425 -86.9271 19.25683 72.72644 -24.42817 -1.79698 -22.07757 67.18591 77.1268 26.42543 -67.78047 -32.81521 1.25653 -3.26632 1.5171 4.37489 -6.30035 -2.84531 -2.64262 -6.3233 -0.63036 7.9052 -2.992 -8.58542 5.70865 0.52059 -2.1436
-0.0035 0.57905 0.00016 183.47682 0 -3.90494 0.18809 2.78764 -6.06834 -24.09344 5.21817 2.98717 -45.22879 -74.6279 -86.92748 19.23984 72.79384 -24.33589 -1.80016 -22.03401 67.12093 77.11335 26.40209 -67.83305 -32.81591 1.26322 -3.28313 1.51038 4.36406 -6.30658 -2.82547 -2.64638 -6.33343 -0.64422 7.89638 -3.00233 -8.58829 5.71278 0.51703 -2.13902
-0.00366 0.57904 0.00022 183.49529 0 -3.89905 0.19702 2.78677 -6.07365 -24.10926 5.23211 2.98724 -45.03673 -74.66338 -86.92789 19.23199 72.88435 -24.23403 -1.79764 -21.99402 67.05773 77.09872 26.38608 -67.87895 -32.80688 1.2692 -3.2975 1.50237 4.3541 -6.31616 -2.80483 -2.65097 -6.34547 -0.65172 7.88588 -3.0206 -8.59656 5.71947 0.51523 -2.13467
-0.00376 0.57902 0.00028 183.53026 0 -3.89002 0.18945 2.78249 -6.08493 -24.11129 5.24662 2.98194 -44.75559 -74.67262 -86.92836 19.25055 73.02515 -24.10921 -1.78299 -21.96945 67.00202 77.0836 26.39318 -67.90292 -32.76893 1.27334 -3.30603 1.49134 4.34757 -6.33603 -2.78067 -2.65817 -6.36408 -0.641 7.87104 -3.06404 -8.62213 5.73531 0.51873 -2.1302
-0.00384 0.57901 0.00035 183.57051 0 -3.87996 0.17524 2.77724 -6.09847 -24.10876 5.26157 2.97527 -44.4392 -74.67326 -86.92886 19.27831 73.18776 -23.9749 -1.76313 -21.94844 66.94815 77.0674 26.4075 -67.92031 -32.72137 1.27677 -3.31224 1.47914 4.34194 -6.35899 -2.75591 -2.66615 -6.38457 -0.62406 7.85464 -3.11535 -8.65287 5.75369 0.52399 -2.12589
-0.00392 0.57899 0.00041 183.60748 0 -3.87063 0.16356 2.77266 -6.11092 -24.10878 5.27659 2.97009 -44.13668 -74.67817 -86.92934 19.3016 73.34201 -23.84375 -1.74566 -21.92381 66.89265 77.05093 26.4174 -67.94234 -32.67929 1.2805 -3.31953 1.46761 4.33583 -6.37965 -2.73222 -2.67358 -6.40378 -0.61059 7.83917 -3.16191 -8.68001 5.77025 0.52831 -2.12146
-0.00401 0.57897 0.00048 183.64802 0 -3.86017 0.15389 2.7672 -6.12388 -24.10691 5.29055 2.96139 -43.841 -74.68205 -86.92984 19.3261 73.49231 -23.71666 -1.72745 -21.90678 66.8402 77.03721 26.43192 -67.95797 -32.63278 1.28429 -3.32659 1.4554 4.33003 -6.4041 -2.70521 -2.68183 -6.4247 -0.59444 7.82271 -3.21316 -8.7123 5.78948 0.53318 -2.11724
-0.00408 0.57896 0.00054 183.68252 0 -3.85182 0.13843 2.7633 -6.13612 -24.10779 5.30676 2.95947 -43.52461 -74.68581 -86.93031 19.35019 73.65423 -23.57963 -1.70988 -21.8755 66.78206 77.01789 26.43863 -67.9848 -32.59295 1.2878 -3.33361 1.44435 4.32366 -6.4214 -2.68495 -2.68854 -6.4425 -0.58234 7.80796 -3.25662 -8.73518 5.80378 0.53733 -2.11271
-0.0041 0.57896 0.00062 183.69812 0 -3.84976 0.1091 2.76397 -6.1469 -24.11805 5.32936 2.97863 -43.14671 -74.6918 -86.93073 19.37186 73.85267 -23.41184 -1.69409 -21.79909 66.70657 76.98109 26.42179 -68.04874 -32.57611 1.29075 -3.34115 1.437 4.31703 -6.41785 -2.68372 -2.69098 -6.45157 -0.58351 7.7985 -3.27643 -8.73039 5.80402 0.53929 -2.1063
-0.0041 0.57897 0.00071 183.70765 0 -3.84982 0.07409 2.76621 -6.15667 -24.13114 5.35413 3.0043 -42.75183 -74.69785 -86.93116 19.39264 74.05999 -23.23552 -1.6794 -21.70917 66.62557 76.93921 26.39695 -68.12337 -32.56596 1.29342 -3.34872 1.43083 4.30953 -6.40704 -2.68926 -2.69182 -6.4574 -0.58886 7.79079 -3.2882 -8.71606 5.7992 0.54044 -2.09975
